<svg xmlns="http://www.w3.org/2000/svg" xmlns:xlink="http://www.w3.org/1999/xlink" version="1.1" id="Layer_1" x="0px" y="0px" width="100%" viewBox="0 0 600 315" enable-background="new 0 0 600 315" xml:space="preserve">
<path fill="#000000" opacity="1.000000" stroke="none" d=" M432.000000,316.000000   C288.000000,316.000000 144.500000,316.000000 1.000000,316.000000   C1.000000,211.000000 1.000000,106.000000 1.000000,1.000000   C201.000000,1.000000 401.000000,1.000000 601.000000,1.000000   C601.000000,106.000000 601.000000,211.000000 601.000000,316.000000   C544.833313,316.000000 488.666656,316.000000 432.000000,316.000000  M199.903549,115.608231   C192.540741,102.609207 185.303467,89.536942 177.774307,76.634995   C172.042328,66.812691 163.869095,61.634007 151.843567,61.852791   C125.527298,62.331585 99.195473,62.120907 72.871773,61.937450   C63.373589,61.871258 55.931561,65.802078 51.347462,73.567970   C36.639351,98.484863 22.102352,123.521248 8.356450,148.974411   C5.003535,155.182968 5.162292,163.497070 8.814091,170.110733   C22.007250,194.004440 35.601582,217.678391 49.206490,241.342148   C54.872124,251.196701 63.034893,256.375946 75.059006,256.147827   C100.708305,255.661163 126.378281,255.698929 152.029572,256.129730   C164.259216,256.335114 172.304932,250.872269 178.036270,240.746292   C191.217239,217.458450 204.397720,194.170242 217.647003,170.921280   C221.575455,164.027893 221.635025,156.207962 218.786316,149.840988   C213.582062,138.209335 206.423218,127.452194 199.903549,115.608231  M542.509705,160.003952   C548.573242,160.000443 554.709595,160.601349 560.686829,159.881317   C579.425659,157.624039 590.782593,146.042496 590.967041,125.625290   C591.129639,107.628494 591.007812,89.629059 590.996216,71.630806   C590.992981,66.668327 587.466064,62.456093 583.013550,62.022232   C578.525574,61.584919 574.326843,64.684204 573.158020,69.395622   C572.869934,70.556908 572.867920,71.789162 572.701477,73.284340   C556.407654,54.474766 529.369690,60.847950 519.683228,78.672882   C511.757935,93.256805 511.652893,108.085960 519.397278,122.442535   C525.419373,133.606400 537.744690,141.364990 553.360107,139.226013   C560.675171,138.223999 566.202942,134.728241 572.001160,129.986649   C571.115295,137.584717 567.076416,142.208252 560.587524,143.859039   C550.259705,146.486450 540.026062,145.662598 530.311890,140.763321   C524.220337,137.691101 520.147522,138.700607 517.796509,143.674927   C515.755493,147.993423 517.799438,152.513657 523.778015,154.795013   C529.547913,156.996719 535.660950,158.299286 542.509705,160.003952  M302.002380,70.997444   C301.506165,69.331879 301.426636,67.340317 300.429962,66.066238   C298.102783,63.091373 295.142944,60.958107 290.985352,62.536793   C286.604309,64.200340 283.910461,66.881134 283.943634,72.072754   C284.079895,93.388031 283.998749,114.704704 283.999939,136.020859   C284.000244,141.516403 283.848419,147.018188 284.061401,152.505661   C284.256317,157.527161 288.513763,161.122879 293.635132,160.998947   C299.106598,160.866547 301.980225,157.905792 301.995148,152.315659   C302.015717,144.599716 302.000305,136.883667 302.000305,128.537964   C317.635254,144.720016 338.918732,142.255539 352.012878,128.537476   C364.369873,115.591667 364.455750,85.690918 351.584106,72.962929   C342.097748,63.582436 331.098358,59.550648 318.310730,63.282482   C313.373505,64.723320 309.243835,68.898148 304.701019,71.755493   C303.913666,72.250732 302.846893,75.048302 302.002380,70.997444  M478.876160,79.362770   C484.644928,80.011147 488.051666,83.683830 489.727753,88.767982   C490.738617,91.834305 490.899841,95.271156 490.945618,98.548454   C491.089813,108.868195 490.985199,119.191238 491.004364,129.512955   C491.015839,135.679886 494.655243,139.905289 499.843384,139.847046   C505.415710,139.784515 508.979126,135.913986 508.991425,129.779358   C509.019135,115.961578 509.354889,102.132103 508.903839,88.329002   C508.414917,73.367554 498.799683,62.824642 483.071960,62.103790   C474.204102,61.697350 466.770477,65.235222 460.321564,72.039665   C460.137299,70.727470 460.137665,69.956337 459.913055,69.257500   C458.570007,65.078217 453.530182,61.550980 449.780487,62.112705   C445.129913,62.809391 442.004303,66.728912 442.002380,71.921318   C441.995148,91.399467 441.962250,110.877800 442.059998,130.355453   C442.069275,132.206161 442.466583,134.364334 443.473389,135.841644   C446.301544,139.991440 450.589752,140.377609 454.874054,138.737213   C458.683960,137.278458 460.056244,133.985123 460.026703,129.934006   C459.946594,118.946922 459.988098,107.958839 460.003540,96.971191   C460.020050,85.230843 466.457733,78.874443 478.876160,79.362770  M225.000519,184.859375   C225.000275,185.859146 224.999802,186.858932 224.999832,187.858704   C225.000183,207.354660 224.951279,226.850800 225.024857,246.346481   C225.054916,254.313568 231.593277,258.730774 237.789200,254.939392   C239.566711,253.851730 240.709152,251.726227 242.143570,250.075684   C253.586899,260.631805 274.036591,256.698303 280.175293,241.644653   C283.843842,232.648453 283.968781,223.716644 282.177368,214.403595   C279.756134,201.816528 268.526398,193.536682 255.830795,195.139481   C251.186157,195.725861 246.736710,197.858154 242.000214,199.347473   C242.000214,197.609802 242.000244,195.783646 242.000183,193.957504   C242.000076,190.791489 242.015396,187.625397 241.996399,184.459488   C241.961456,178.633896 239.532700,175.465805 234.781113,175.010498   C228.677246,174.425613 226.193100,176.696411 225.000519,184.859375  M278.930695,121.838142   C280.613983,104.770378 273.905975,100.184868 259.636932,94.890671   C255.034653,93.183090 250.302612,91.795372 245.793274,89.877296   C242.610535,88.523499 239.029846,86.701424 240.149002,82.314110   C241.137848,78.437561 244.704788,77.393898 248.266418,77.062775   C249.873337,76.913383 251.616226,77.071388 253.153778,77.550690   C257.512177,78.909340 261.855042,80.358788 266.094055,82.048424   C270.612274,83.849350 275.124969,82.771576 276.878143,79.142700   C279.003540,74.743332 277.528564,70.278671 272.809296,68.080475   C268.970642,66.292473 265.009583,64.537987 260.913239,63.575321   C248.594772,60.680397 237.030197,61.403664 227.792114,71.673477   C221.180115,79.023911 221.341873,91.628838 228.134384,98.681145   C234.045715,104.818558 242.077179,106.275841 249.582932,108.985229   C253.087967,110.250458 256.805786,111.398659 259.796906,113.497894   C263.702667,116.239037 262.628143,122.486649 258.085632,123.758148   C254.873138,124.657356 251.084305,125.164238 247.954285,124.333458   C242.014374,122.756859 236.334747,120.164055 230.600677,117.859795   C226.717377,116.299278 222.042084,117.270668 220.423935,120.197876   C218.770630,123.188683 220.318863,129.059601 223.297028,131.066437   C230.381943,135.840652 238.144791,138.301712 246.691559,139.298492   C260.372742,140.894089 274.702728,136.130920 278.930695,121.838142  M408.486694,203.034393   C398.774200,194.706757 387.670807,192.955582 375.766449,196.775772   C356.846497,202.847321 353.825592,224.239044 359.241852,238.444427   C364.301544,251.714523 376.644653,256.879242 390.428833,255.972214   C405.556213,254.976791 418.434021,240.054688 416.928253,225.336319   C416.119232,217.428406 414.314453,209.841827 408.486694,203.034393  M348.996643,232.291245   C348.789246,226.806732 349.506775,221.092926 348.213867,215.877518   C342.696167,193.619995 317.732239,190.852783 303.371307,199.202957   C291.373383,206.179108 288.572510,219.466919 290.460571,231.921707   C291.642853,239.721085 295.096832,246.551315 301.797516,250.814514   C317.903320,261.061584 343.634949,257.194489 348.996643,232.291245  M373.221100,62.488571   C368.223633,64.492371 365.939392,68.142525 365.965790,73.566093   C366.054993,91.881729 365.984558,110.198097 366.008392,128.514130   C366.016632,134.832916 369.987030,139.616608 375.282288,139.824829   C380.928589,140.046875 384.964630,135.375168 384.991730,128.493484   C385.024536,120.168121 384.919861,111.841560 385.020844,103.517281   C385.156616,92.321999 393.124725,82.257767 403.451935,80.034035   C409.595367,78.711182 412.795685,74.492706 411.510712,69.411369   C410.038818,63.590862 404.804871,60.516361 398.915009,62.722790   C394.066559,64.539093 389.554108,67.252396 384.848877,69.589966   C382.690735,65.754578 380.042114,61.543816 373.221100,62.488571  M446.000183,186.772034   C445.882294,180.050064 443.291016,177.040100 437.589478,177.002457   C431.593781,176.962860 429.014923,179.990326 429.000916,187.095306   C428.994690,190.242142 428.999847,193.389008 428.999847,196.442307   C425.125977,197.649475 421.248993,197.824585 420.878265,203.165680   C420.454803,209.265991 424.229340,210.663940 429.000977,211.473999   C429.000977,221.932663 428.958160,232.088882 429.016876,242.244522   C429.052582,248.420151 432.121552,253.714066 437.996063,254.693100   C443.806274,255.661423 450.018585,255.221970 455.910431,254.385513   C460.833649,253.686554 463.074432,249.191910 461.860718,244.784134   C460.768738,240.818466 457.946472,239.731476 452.356537,240.777115   C450.162231,241.187576 447.284943,241.869888 447.049591,238.256805   C446.463593,229.261795 446.074249,220.253967 445.608917,211.307587   C454.374390,210.635422 457.926575,208.366470 457.974731,204.056976   C458.022705,199.768005 454.871307,197.703644 446.000275,196.486084   C446.000275,193.612869 446.000275,190.650467 446.000183,186.772034  M417.902252,135.367767   C420.508850,139.281357 424.015015,140.230377 428.512085,139.043869   C433.809998,137.646088 434.864563,133.438766 434.910889,129.131485   C435.111481,110.480476 435.057587,91.825790 434.963440,73.173119   C434.933136,67.169060 430.150665,61.913151 425.282318,62.060383   C420.325806,62.210278 416.064301,67.500084 416.057678,73.623245   C416.037811,91.943291 416.009369,110.263588 416.107697,128.583130   C416.118835,130.655899 416.915894,132.724472 417.902252,135.367767  M434.886047,44.174263   C435.150635,39.765129 433.145294,35.946815 429.441010,34.517445   C426.823547,33.507431 422.734497,34.150978 420.193604,35.609180   C416.390533,37.791718 414.928558,41.666550 416.939941,46.304909   C418.671967,50.298992 421.542053,52.075256 425.763824,52.001019   C430.552673,51.916805 433.281464,49.304169 434.886047,44.174263  z"/>
<path fill="#6DB33F" opacity="1.000000" stroke="none" d=" M199.991592,115.969261   C206.423218,127.452194 213.582062,138.209335 218.786316,149.840988   C221.635025,156.207962 221.575455,164.027893 217.647003,170.921280   C204.397720,194.170242 191.217239,217.458450 178.036270,240.746292   C172.304932,250.872269 164.259216,256.335114 152.029572,256.129730   C126.378281,255.698929 100.708305,255.661163 75.059006,256.147827   C63.034893,256.375946 54.872124,251.196701 49.206490,241.342148   C35.601582,217.678391 22.007250,194.004440 8.814091,170.110733   C5.162292,163.497070 5.003535,155.182968 8.356450,148.974411   C22.102352,123.521248 36.639351,98.484863 51.347462,73.567970   C55.931561,65.802078 63.373589,61.871258 72.871773,61.937450   C99.195473,62.120907 125.527298,62.331585 151.843567,61.852791   C163.869095,61.634007 172.042328,66.812691 177.774307,76.634995   C185.303467,89.536942 192.540741,102.609207 199.991592,115.969261  M149.547348,179.964417   C137.034622,198.232132 114.222336,204.985413 93.275421,194.993942   C74.297310,185.941559 64.038834,160.542542 71.351242,141.115540   C74.565826,132.575287 79.105911,125.284561 86.576492,119.812401   C90.336357,117.058319 90.659645,112.544502 87.959961,109.476311   C85.163689,106.298347 80.882507,106.109894 77.380249,109.145866   C60.062344,124.158142 52.213024,143.111603 56.217117,165.720779   C61.364159,194.783600 87.384277,215.771149 117.598907,213.139252   C136.324280,211.508148 150.858368,203.147400 161.000107,187.658783   C173.352020,168.794754 174.038528,148.983810 164.448822,128.576401   C160.731384,120.665482 154.675430,114.888031 148.534790,109.120445   C145.024811,105.823715 140.430405,106.346672 137.641479,109.893997   C134.881714,113.404221 135.655991,116.940720 139.814240,120.006805   C141.008575,120.887466 142.216568,121.776817 143.277496,122.807159   C157.789062,136.900360 162.240738,159.896667 149.547348,179.964417  M119.618889,159.827927   C120.080460,157.774002 120.928749,155.722641 120.942413,153.665741   C121.051796,137.191696 120.761459,120.711067 121.138535,104.244926   C121.265411,98.704353 116.440308,95.025146 112.914261,95.038162   C108.961655,95.052742 105.037849,99.565735 105.022133,104.282104   C104.967239,120.756699 104.940987,137.231979 105.050041,153.706039   C105.072983,157.171677 105.642822,160.550598 109.583054,162.227356   C113.268158,163.795517 116.293449,163.104935 119.618889,159.827927  z"/>
<path fill="#6DB33E" opacity="1.000000" stroke="none" d=" M542.066467,160.000397   C535.660950,158.299286 529.547913,156.996719 523.778015,154.795013   C517.799438,152.513657 515.755493,147.993423 517.796509,143.674927   C520.147522,138.700607 524.220337,137.691101 530.311890,140.763321   C540.026062,145.662598 550.259705,146.486450 560.587524,143.859039   C567.076416,142.208252 571.115295,137.584717 572.001160,129.986649   C566.202942,134.728241 560.675171,138.223999 553.360107,139.226013   C537.744690,141.364990 525.419373,133.606400 519.397278,122.442535   C511.652893,108.085960 511.757935,93.256805 519.683228,78.672882   C529.369690,60.847950 556.407654,54.474766 572.701477,73.284340   C572.867920,71.789162 572.869934,70.556908 573.158020,69.395622   C574.326843,64.684204 578.525574,61.584919 583.013550,62.022232   C587.466064,62.456093 590.992981,66.668327 590.996216,71.630806   C591.007812,89.629059 591.129639,107.628494 590.967041,125.625290   C590.782593,146.042496 579.425659,157.624039 560.686829,159.881317   C554.709595,160.601349 548.573242,160.000443 542.066467,160.000397  M568.587402,86.040085   C567.894531,85.323883 567.177795,84.629074 566.512329,83.888260   C558.213989,74.650200 542.276123,76.383644 535.866882,87.672836   C532.621094,93.389999 532.489990,99.642799 533.047485,105.912285   C533.810059,114.488480 540.476074,121.212555 550.255554,123.645515   C555.893188,125.048058 565.161133,120.893166 569.012207,115.035683   C575.212097,105.605659 575.070801,96.089264 568.587402,86.040085  z"/>
<path fill="#6DB33F" opacity="1.000000" stroke="none" d=" M302.006287,71.363098   C302.846893,75.048302 303.913666,72.250732 304.701019,71.755493   C309.243835,68.898148 313.373505,64.723320 318.310730,63.282482   C331.098358,59.550648 342.097748,63.582436 351.584106,72.962929   C364.455750,85.690918 364.369873,115.591667 352.012878,128.537476   C338.918732,142.255539 317.635254,144.720016 302.000305,128.537964   C302.000305,136.883667 302.015717,144.599716 301.995148,152.315659   C301.980225,157.905792 299.106598,160.866547 293.635132,160.998947   C288.513763,161.122879 284.256317,157.527161 284.061401,152.505661   C283.848419,147.018188 284.000244,141.516403 283.999939,136.020859   C283.998749,114.704704 284.079895,93.388031 283.943634,72.072754   C283.910461,66.881134 286.604309,64.200340 290.985352,62.536793   C295.142944,60.958107 298.102783,63.091373 300.429962,66.066238   C301.426636,67.340317 301.506165,69.331879 302.006287,71.363098  M302.003143,103.200867   C302.860443,106.176468 303.402985,109.289871 304.634186,112.101753   C308.279999,120.428391 318.530731,124.797340 326.466522,123.421516   C341.062500,120.891006 346.320557,102.468094 340.928345,90.663147   C335.845367,79.535278 325.614655,75.135864 314.484985,80.064812   C305.033112,84.250710 302.132935,92.634590 302.003143,103.200867  z"/>
<path fill="#6DB33E" opacity="1.000000" stroke="none" d=" M478.483154,79.220810   C466.457733,78.874443 460.020050,85.230843 460.003540,96.971191   C459.988098,107.958839 459.946594,118.946922 460.026703,129.934006   C460.056244,133.985123 458.683960,137.278458 454.874054,138.737213   C450.589752,140.377609 446.301544,139.991440 443.473389,135.841644   C442.466583,134.364334 442.069275,132.206161 442.059998,130.355453   C441.962250,110.877800 441.995148,91.399467 442.002380,71.921318   C442.004303,66.728912 445.129913,62.809391 449.780487,62.112705   C453.530182,61.550980 458.570007,65.078217 459.913055,69.257500   C460.137665,69.956337 460.137299,70.727470 460.321564,72.039665   C466.770477,65.235222 474.204102,61.697350 483.071960,62.103790   C498.799683,62.824642 508.414917,73.367554 508.903839,88.329002   C509.354889,102.132103 509.019135,115.961578 508.991425,129.779358   C508.979126,135.913986 505.415710,139.784515 499.843384,139.847046   C494.655243,139.905289 491.015839,135.679886 491.004364,129.512955   C490.985199,119.191238 491.089813,108.868195 490.945618,98.548454   C490.899841,95.271156 490.738617,91.834305 489.727753,88.767982   C488.051666,83.683830 484.644928,80.011147 478.483154,79.220810  z"/>
<path fill="#6DB33F" opacity="1.000000" stroke="none" d=" M225.001648,184.404205   C226.193100,176.696411 228.677246,174.425613 234.781113,175.010498   C239.532700,175.465805 241.961456,178.633896 241.996399,184.459488   C242.015396,187.625397 242.000076,190.791489 242.000183,193.957504   C242.000244,195.783646 242.000214,197.609802 242.000214,199.347473   C246.736710,197.858154 251.186157,195.725861 255.830795,195.139481   C268.526398,193.536682 279.756134,201.816528 282.177368,214.403595   C283.968781,223.716644 283.843842,232.648453 280.175293,241.644653   C274.036591,256.698303 253.586899,260.631805 242.143570,250.075684   C240.709152,251.726227 239.566711,253.851730 237.789200,254.939392   C231.593277,258.730774 225.054916,254.313568 225.024857,246.346481   C224.951279,226.850800 225.000183,207.354660 224.999832,187.858704   C224.999802,186.858932 225.000275,185.859146 225.001648,184.404205  M265.979767,226.282608   C265.579681,223.367020 265.636047,220.289429 264.672363,217.573853   C263.232697,213.517014 261.070038,209.527451 256.074005,209.074860   C251.476440,208.658356 248.084793,210.568832 245.484512,214.720703   C242.003754,220.278381 242.399231,226.162888 243.603088,231.863586   C244.754684,237.316681 249.752548,240.990204 253.998581,240.996368   C258.561707,241.002991 262.924591,237.721710 264.576691,232.844757   C265.200439,231.003464 265.473999,229.043549 265.979767,226.282608  z"/>
<path fill="#6CB33E" opacity="1.000000" stroke="none" d=" M278.821960,122.251236   C274.702728,136.130920 260.372742,140.894089 246.691559,139.298492   C238.144791,138.301712 230.381943,135.840652 223.297028,131.066437   C220.318863,129.059601 218.770630,123.188683 220.423935,120.197876   C222.042084,117.270668 226.717377,116.299278 230.600677,117.859795   C236.334747,120.164055 242.014374,122.756859 247.954285,124.333458   C251.084305,125.164238 254.873138,124.657356 258.085632,123.758148   C262.628143,122.486649 263.702667,116.239037 259.796906,113.497894   C256.805786,111.398659 253.087967,110.250458 249.582932,108.985229   C242.077179,106.275841 234.045715,104.818558 228.134384,98.681145   C221.341873,91.628838 221.180115,79.023911 227.792114,71.673477   C237.030197,61.403664 248.594772,60.680397 260.913239,63.575321   C265.009583,64.537987 268.970642,66.292473 272.809296,68.080475   C277.528564,70.278671 279.003540,74.743332 276.878143,79.142700   C275.124969,82.771576 270.612274,83.849350 266.094055,82.048424   C261.855042,80.358788 257.512177,78.909340 253.153778,77.550690   C251.616226,77.071388 249.873337,76.913383 248.266418,77.062775   C244.704788,77.393898 241.137848,78.437561 240.149002,82.314110   C239.029846,86.701424 242.610535,88.523499 245.793274,89.877296   C250.302612,91.795372 255.034653,93.183090 259.636932,94.890671   C273.905975,100.184868 280.613983,104.770378 278.821960,122.251236  z"/>
<path fill="#6DB33F" opacity="1.000000" stroke="none" d=" M408.740051,203.296234   C414.314453,209.841827 416.119232,217.428406 416.928253,225.336319   C418.434021,240.054688 405.556213,254.976791 390.428833,255.972214   C376.644653,256.879242 364.301544,251.714523 359.241852,238.444427   C353.825592,224.239044 356.846497,202.847321 375.766449,196.775772   C387.670807,192.955582 398.774200,194.706757 408.740051,203.296234  M376.804413,215.637283   C374.431305,221.466843 374.365479,227.414780 376.039307,233.400162   C377.281403,237.841797 380.128113,241.098099 384.674316,241.870956   C389.569641,242.703171 393.884888,240.961609 396.147491,236.240982   C398.649658,231.020599 399.879181,225.633209 398.081543,219.699936   C396.568573,214.706207 394.398895,210.484375 389.083801,209.177231   C383.752869,207.866165 379.880798,210.500809 376.804413,215.637283  z"/>
<path fill="#6DB33F" opacity="1.000000" stroke="none" d=" M348.990112,232.716888   C343.634949,257.194489 317.903320,261.061584 301.797516,250.814514   C295.096832,246.551315 291.642853,239.721085 290.460571,231.921707   C288.572510,219.466919 291.373383,206.179108 303.371307,199.202957   C317.732239,190.852783 342.696167,193.619995 348.213867,215.877518   C349.506775,221.092926 348.789246,226.806732 348.990112,232.716888  M317.084381,241.943329   C322.200348,242.421051 326.633209,241.204193 329.114288,236.307388   C332.993958,228.650101 333.085907,220.987732 328.286163,213.628738   C324.699463,208.129654 317.407349,207.349152 312.669952,211.832108   C304.676025,219.396683 306.702332,236.064178 317.084381,241.943329  z"/>
<path fill="#6CB33E" opacity="1.000000" stroke="none" d=" M373.580383,62.341255   C380.042114,61.543816 382.690735,65.754578 384.848877,69.589966   C389.554108,67.252396 394.066559,64.539093 398.915009,62.722790   C404.804871,60.516361 410.038818,63.590862 411.510712,69.411369   C412.795685,74.492706 409.595367,78.711182 403.451935,80.034035   C393.124725,82.257767 385.156616,92.321999 385.020844,103.517281   C384.919861,111.841560 385.024536,120.168121 384.991730,128.493484   C384.964630,135.375168 380.928589,140.046875 375.282288,139.824829   C369.987030,139.616608 366.016632,134.832916 366.008392,128.514130   C365.984558,110.198097 366.054993,91.881729 365.965790,73.566093   C365.939392,68.142525 368.223633,64.492371 373.580383,62.341255  z"/>
<path fill="#6DB33F" opacity="1.000000" stroke="none" d=" M446.000244,187.230042   C446.000275,190.650467 446.000275,193.612869 446.000275,196.486084   C454.871307,197.703644 458.022705,199.768005 457.974731,204.056976   C457.926575,208.366470 454.374390,210.635422 445.608917,211.307587   C446.074249,220.253967 446.463593,229.261795 447.049591,238.256805   C447.284943,241.869888 450.162231,241.187576 452.356537,240.777115   C457.946472,239.731476 460.768738,240.818466 461.860718,244.784134   C463.074432,249.191910 460.833649,253.686554 455.910431,254.385513   C450.018585,255.221970 443.806274,255.661423 437.996063,254.693100   C432.121552,253.714066 429.052582,248.420151 429.016876,242.244522   C428.958160,232.088882 429.000977,221.932663 429.000977,211.473999   C424.229340,210.663940 420.454803,209.265991 420.878265,203.165680   C421.248993,197.824585 425.125977,197.649475 428.999847,196.442307   C428.999847,193.389008 428.994690,190.242142 429.000916,187.095306   C429.014923,179.990326 431.593781,176.962860 437.589478,177.002457   C443.291016,177.040100 445.882294,180.050064 446.000244,187.230042  z"/>
<path fill="#6CB23E" opacity="1.000000" stroke="none" d=" M417.625366,135.081375   C416.915894,132.724472 416.118835,130.655899 416.107697,128.583130   C416.009369,110.263588 416.037811,91.943291 416.057678,73.623245   C416.064301,67.500084 420.325806,62.210278 425.282318,62.060383   C430.150665,61.913151 434.933136,67.169060 434.963440,73.173119   C435.057587,91.825790 435.111481,110.480476 434.910889,129.131485   C434.864563,133.438766 433.809998,137.646088 428.512085,139.043869   C424.015015,140.230377 420.508850,139.281357 417.625366,135.081375  z"/>
<path fill="#6CB23E" opacity="1.000000" stroke="none" d=" M434.721191,44.530235   C433.281464,49.304169 430.552673,51.916805 425.763824,52.001019   C421.542053,52.075256 418.671967,50.298992 416.939941,46.304909   C414.928558,41.666550 416.390533,37.791718 420.193604,35.609180   C422.734497,34.150978 426.823547,33.507431 429.441010,34.517445   C433.145294,35.946815 435.150635,39.765129 434.721191,44.530235  z"/>
<path fill="#000000" opacity="1.000000" stroke="none" d=" M149.792770,179.691162   C162.240738,159.896667 157.789062,136.900360 143.277496,122.807159   C142.216568,121.776817 141.008575,120.887466 139.814240,120.006805   C135.655991,116.940720 134.881714,113.404221 137.641479,109.893997   C140.430405,106.346672 145.024811,105.823715 148.534790,109.120445   C154.675430,114.888031 160.731384,120.665482 164.448822,128.576401   C174.038528,148.983810 173.352020,168.794754 161.000107,187.658783   C150.858368,203.147400 136.324280,211.508148 117.598907,213.139252   C87.384277,215.771149 61.364159,194.783600 56.217117,165.720779   C52.213024,143.111603 60.062344,124.158142 77.380249,109.145866   C80.882507,106.109894 85.163689,106.298347 87.959961,109.476311   C90.659645,112.544502 90.336357,117.058319 86.576492,119.812401   C79.105911,125.284561 74.565826,132.575287 71.351242,141.115540   C64.038834,160.542542 74.297310,185.941559 93.275421,194.993942   C114.222336,204.985413 137.034622,198.232132 149.792770,179.691162  z"/>
<path fill="#000000" opacity="1.000000" stroke="none" d=" M119.334290,160.121567   C116.293449,163.104935 113.268158,163.795517 109.583054,162.227356   C105.642822,160.550598 105.072983,157.171677 105.050041,153.706039   C104.940987,137.231979 104.967239,120.756699 105.022133,104.282104   C105.037849,99.565735 108.961655,95.052742 112.914261,95.038162   C116.440308,95.025146 121.265411,98.704353 121.138535,104.244926   C120.761459,120.711067 121.051796,137.191696 120.942413,153.665741   C120.928749,155.722641 120.080460,157.774002 119.334290,160.121567  z"/>
<path fill="#000000" opacity="1.000000" stroke="none" d=" M568.829346,86.318604   C575.070801,96.089264 575.212097,105.605659 569.012207,115.035683   C565.161133,120.893166 555.893188,125.048058 550.255554,123.645515   C540.476074,121.212555 533.810059,114.488480 533.047485,105.912285   C532.489990,99.642799 532.621094,93.389999 535.866882,87.672836   C542.276123,76.383644 558.213989,74.650200 566.512329,83.888260   C567.177795,84.629074 567.894531,85.323883 568.829346,86.318604  z"/>
<path fill="#000000" opacity="1.000000" stroke="none" d=" M302.001892,102.759811   C302.132935,92.634590 305.033112,84.250710 314.484985,80.064812   C325.614655,75.135864 335.845367,79.535278 340.928345,90.663147   C346.320557,102.468094 341.062500,120.891006 326.466522,123.421516   C318.530731,124.797340 308.279999,120.428391 304.634186,112.101753   C303.402985,109.289871 302.860443,106.176468 302.001892,102.759811  z"/>
<path fill="#000000" opacity="1.000000" stroke="none" d=" M265.943481,226.710159   C265.473999,229.043549 265.200439,231.003464 264.576691,232.844757   C262.924591,237.721710 258.561707,241.002991 253.998581,240.996368   C249.752548,240.990204 244.754684,237.316681 243.603088,231.863586   C242.399231,226.162888 242.003754,220.278381 245.484512,214.720703   C248.084793,210.568832 251.476440,208.658356 256.074005,209.074860   C261.070038,209.527451 263.232697,213.517014 264.672363,217.573853   C265.636047,220.289429 265.579681,223.367020 265.943481,226.710159  z"/>
<path fill="#000000" opacity="1.000000" stroke="none" d=" M376.920227,215.261047   C379.880798,210.500809 383.752869,207.866165 389.083801,209.177231   C394.398895,210.484375 396.568573,214.706207 398.081543,219.699936   C399.879181,225.633209 398.649658,231.020599 396.147491,236.240982   C393.884888,240.961609 389.569641,242.703171 384.674316,241.870956   C380.128113,241.098099 377.281403,237.841797 376.039307,233.400162   C374.365479,227.414780 374.431305,221.466843 376.920227,215.261047  z"/>
<path fill="#000000" opacity="1.000000" stroke="none" d=" M316.694824,241.838989   C306.702332,236.064178 304.676025,219.396683 312.669952,211.832108   C317.407349,207.349152 324.699463,208.129654 328.286163,213.628738   C333.085907,220.987732 332.993958,228.650101 329.114288,236.307388   C326.633209,241.204193 322.200348,242.421051 316.694824,241.838989  z"/>
</svg>